<svg width="48" height="48" viewBox="0 0 48 48" fill="none" xmlns="http://www.w3.org/2000/svg">
<path d="M48 24C48 37.2548 37.2548 48 24 48C10.7452 48 0 37.2548 0 24C0 10.7452 10.7452 0 24 0C37.2548 0 48 10.7452 48 24Z" fill="#383838"/>
<path d="M22.1016 27.9844C22.1016 26.9453 22.2305 26.1172 22.4883 25.5C22.7461 24.8828 23.2539 24.207 24.0117 23.4727C24.7773 22.7305 25.2617 22.2031 25.4648 21.8906C25.7773 21.4141 25.9336 20.8984 25.9336 20.3438C25.9336 19.6094 25.75 19.0508 25.3828 18.668C25.0234 18.2773 24.4922 18.082 23.7891 18.082C23.1172 18.082 22.5742 18.2734 22.1602 18.6562C21.7539 19.0312 21.5508 19.543 21.5508 20.1914H18.7031C18.7188 18.8086 19.1875 17.7148 20.1094 16.9102C21.0391 16.1055 22.2656 15.7031 23.7891 15.7031C25.3594 15.7031 26.582 16.1016 27.457 16.8984C28.3398 17.6953 28.7812 18.8086 28.7812 20.2383C28.7812 21.5117 28.1875 22.7656 27 24L25.5586 25.418C25.043 26.0039 24.7773 26.8594 24.7617 27.9844H22.1016ZM21.9023 31.6289C21.9023 31.168 22.0469 30.7969 22.3359 30.5156C22.625 30.2266 23.0156 30.082 23.5078 30.082C24.0078 30.082 24.4023 30.2305 24.6914 30.5273C24.9805 30.8164 25.125 31.1836 25.125 31.6289C25.125 32.0586 24.9844 32.418 24.7031 32.707C24.4219 32.9961 24.0234 33.1406 23.5078 33.1406C22.9922 33.1406 22.5938 32.9961 22.3125 32.707C22.0391 32.418 21.9023 32.0586 21.9023 31.6289Z" fill="#F5F5F5"/>
</svg>
