<svg width="80" height="80" viewBox="0 0 80 80" fill="none" xmlns="http://www.w3.org/2000/svg">
<path d="M40 6.6665C21.6 6.6665 6.66667 21.5998 6.66667 39.9998C6.66667 58.3998 21.6 73.3332 40 73.3332C58.4 73.3332 73.3333 58.3998 73.3333 39.9998C73.3333 21.5998 58.4 6.6665 40 6.6665ZM33.3333 53.3332C31.5 53.3332 30 51.8332 30 49.9998V29.9998C30 28.1665 31.5 26.6665 33.3333 26.6665C35.1667 26.6665 36.6667 28.1665 36.6667 29.9998V49.9998C36.6667 51.8332 35.1667 53.3332 33.3333 53.3332ZM46.6667 53.3332C44.8333 53.3332 43.3333 51.8332 43.3333 49.9998V29.9998C43.3333 28.1665 44.8333 26.6665 46.6667 26.6665C48.5 26.6665 50 28.1665 50 29.9998V49.9998C50 51.8332 48.5 53.3332 46.6667 53.3332Z" fill="#F5F5F5"/>
</svg>
