<svg width="48" height="48" viewBox="0 0 48 48" fill="none" xmlns="http://www.w3.org/2000/svg">
<path d="M36.6 11.4199C35.82 10.6399 34.56 10.6399 33.78 11.4199L24 21.1799L14.22 11.3999C13.44 10.6199 12.18 10.6199 11.4 11.3999C10.62 12.1799 10.62 13.4399 11.4 14.2199L21.18 23.9999L11.4 33.7799C10.62 34.5599 10.62 35.8199 11.4 36.5999C12.18 37.3799 13.44 37.3799 14.22 36.5999L24 26.8199L33.78 36.5999C34.56 37.3799 35.82 37.3799 36.6 36.5999C37.38 35.8199 37.38 34.5599 36.6 33.7799L26.82 23.9999L36.6 14.2199C37.36 13.4599 37.36 12.1799 36.6 11.4199Z" fill="#F5F5F5"/>
</svg>
