<svg width="48" height="48" viewBox="0 0 48 48" fill="none" xmlns="http://www.w3.org/2000/svg">
<path d="M48 24C48 37.2548 37.2548 48 24 48C10.7452 48 0 37.2548 0 24C0 10.7452 10.7452 0 24 0C37.2548 0 48 10.7452 48 24Z" fill="#383838"/>
<path d="M29.65 18.35C28.02 16.72 25.71 15.78 23.17 16.04C19.5 16.41 16.48 19.39 16.07 23.06C15.52 27.91 19.27 32 24 32C27.19 32 29.93 30.13 31.21 27.44C31.53 26.77 31.05 26 30.31 26C29.94 26 29.59 26.2 29.43 26.53C28.3 28.96 25.59 30.5 22.63 29.84C20.41 29.35 18.62 27.54 18.15 25.32C17.31 21.44 20.26 18 24 18C25.66 18 27.14 18.69 28.22 19.78L26.71 21.29C26.08 21.92 26.52 23 27.41 23H31C31.55 23 32 22.55 32 22V18.41C32 17.52 30.92 17.07 30.29 17.7L29.65 18.35Z" fill="#F5F5F5"/>
</svg>
