<svg width="48" height="48" viewBox="0 0 48 48" fill="none" xmlns="http://www.w3.org/2000/svg">
<path d="M48 24C48 37.2548 37.2548 48 24 48C10.7452 48 0 37.2548 0 24C0 10.7452 10.7452 0 24 0C37.2548 0 48 10.7452 48 24Z" fill="#383838"/>
<path d="M24.0018 15C23.4519 15 23.002 15.4501 23.002 16.0003V24.0027C23.002 24.5529 23.4519 25.003 24.0018 25.003C24.5517 25.003 25.0016 24.5529 25.0016 24.0027V16.0003C25.0016 15.4501 24.5517 15 24.0018 15ZM29.1408 17.8609C28.7508 18.251 28.7608 18.8612 29.1308 19.2513C30.2605 20.4517 30.9604 22.0521 31.0004 23.8227C31.0904 27.6538 27.921 30.9548 24.0918 30.9949C20.1826 31.0549 17.0032 27.9039 17.0032 24.0027C17.0032 22.1622 17.7131 20.4917 18.8728 19.2413C19.2427 18.8512 19.2427 18.241 18.8628 17.8609C18.4629 17.4607 17.813 17.4707 17.4331 17.8809C15.9834 19.4213 15.0736 21.472 15.0036 23.7427C14.8636 28.6241 18.8328 32.8454 23.7119 32.9955C28.8108 33.1555 33 29.0643 33 23.9927C33 21.622 32.0802 19.4814 30.5805 17.8809C30.2006 17.4707 29.5407 17.4607 29.1408 17.8609Z" fill="#F5F5F5"/>
</svg>
