<svg width="48" height="48" viewBox="0 0 48 48" fill="none" xmlns="http://www.w3.org/2000/svg">
<path d="M6 20.0002V28.0002C6 29.1002 6.9 30.0002 8 30.0002H14L20.58 36.5802C21.84 37.8402 24 36.9402 24 35.1602V12.8202C24 11.0402 21.84 10.1402 20.58 11.4002L14 18.0002H8C6.9 18.0002 6 18.9002 6 20.0002ZM33 24.0002C33 20.4602 30.96 17.4202 28 15.9402V32.0402C30.96 30.5802 33 27.5402 33 24.0002ZM28 8.90017V9.30017C28 10.0602 28.5 10.7202 29.2 11.0002C34.36 13.0602 38 18.1202 38 24.0002C38 29.8802 34.36 34.9402 29.2 37.0002C28.48 37.2802 28 37.9402 28 38.7002V39.1002C28 40.3602 29.26 41.2402 30.42 40.8002C37.2 38.2202 42 31.6802 42 24.0002C42 16.3202 37.2 9.78017 30.42 7.20017C29.26 6.74017 28 7.64017 28 8.90017Z" fill="#F5F5F5"/>
</svg>
