<svg width="48" height="48" viewBox="0 0 48 48" fill="none" xmlns="http://www.w3.org/2000/svg">
<path d="M7.26 7.2598C6.48 8.0398 6.48 9.2998 7.26 10.0798L14.58 17.3998L14 17.9998H8C6.9 17.9998 6 18.8998 6 19.9998V27.9998C6 29.0998 6.9 29.9998 8 29.9998H14L20.58 36.5798C21.84 37.8398 24 36.9398 24 35.1598V26.8198L32.36 35.1798C31.38 35.9198 30.32 36.5398 29.16 36.9998C28.44 37.2998 28 38.0598 28 38.8398C28 40.2798 29.46 41.1998 30.78 40.6598C32.38 39.9998 33.88 39.1198 35.22 38.0398L37.9 40.7198C38.68 41.4998 39.94 41.4998 40.72 40.7198C41.5 39.9398 41.5 38.6798 40.72 37.8998L10.1 7.2598C9.32 6.4798 8.06 6.4798 7.26 7.2598ZM38 23.9998C38 25.6398 37.7 27.2198 37.18 28.6798L40.24 31.7398C41.36 29.3998 42 26.7798 42 23.9998C42 16.3398 37.2 9.7798 30.44 7.1998C29.26 6.7398 28 7.6598 28 8.9198V9.2998C28 10.0598 28.5 10.7198 29.22 10.9998C34.36 13.0798 38 18.1198 38 23.9998ZM20.58 11.4198L20.24 11.7598L24 15.5198V12.8198C24 11.0398 21.84 10.1598 20.58 11.4198ZM33 23.9998C33 20.4598 30.96 17.4198 28 15.9398V19.5198L32.96 24.4798C32.98 24.3198 33 24.1598 33 23.9998Z" fill="#F5F5F5"/>
</svg>
