<svg width="48" height="48" viewBox="0 0 48 48" fill="none" xmlns="http://www.w3.org/2000/svg">
<path d="M37.84 25.9999C36.84 25.9999 36.02 26.7399 35.88 27.7199C34.92 34.4599 28.34 39.3999 21.04 37.6399C16.54 36.5599 13.22 33.0999 12.26 28.5799C10.64 20.8399 16.54 13.9999 24 13.9999V19.5799C24 20.4799 25.08 20.9199 25.7 20.2799L33.28 12.6999C33.68 12.2999 33.68 11.6799 33.28 11.2799L25.7 3.69988C25.08 3.07988 24 3.51988 24 4.41988V9.99988C14.12 9.99988 6.32001 18.9599 8.32001 29.1999C9.52001 35.4199 14.12 40.1999 20.3 41.5799C29.96 43.7399 38.6 37.1799 39.84 28.2399C40.02 27.0599 39.04 25.9999 37.84 25.9999ZM21.8 31.9999V23.4599H21.62L18.08 24.7199V26.0999L20.1 25.4799V31.9999H21.8ZM28.64 23.5599C28.28 23.4199 27.9 23.3599 27.46 23.3599C27.02 23.3599 26.64 23.4199 26.28 23.5599C25.92 23.6999 25.62 23.9199 25.38 24.2199C25.14 24.5199 24.92 24.8999 24.8 25.3599C24.68 25.8199 24.6 26.3599 24.6 26.9999V28.4799C24.6 29.1199 24.68 29.6799 24.82 30.1199C24.96 30.5599 25.16 30.9599 25.42 31.2599C25.68 31.5599 25.98 31.7799 26.34 31.9199C26.7 32.0599 27.08 32.1199 27.52 32.1199C27.96 32.1199 28.34 32.0599 28.7 31.9199C29.06 31.7799 29.36 31.5599 29.6 31.2599C29.84 30.9599 30.04 30.5799 30.18 30.1199C30.32 29.6599 30.38 29.1199 30.38 28.4799V26.9999C30.38 26.3599 30.3 25.7999 30.16 25.3599C30.02 24.9199 29.82 24.5199 29.56 24.2199C29.3 23.9199 28.98 23.6999 28.64 23.5599ZM28.66 28.6999C28.66 29.0799 28.64 29.3999 28.58 29.6599C28.52 29.9199 28.46 30.1399 28.36 30.2999C28.26 30.4599 28.14 30.5799 27.98 30.6399C27.82 30.6999 27.66 30.7399 27.48 30.7399C27.3 30.7399 27.12 30.6999 26.98 30.6399C26.84 30.5799 26.7 30.4599 26.6 30.2999C26.5 30.1399 26.42 29.9199 26.36 29.6599C26.3 29.3999 26.28 29.0799 26.28 28.6999V26.7599C26.28 26.3799 26.3 26.0599 26.36 25.7999C26.42 25.5399 26.48 25.3399 26.6 25.1799C26.72 25.0199 26.82 24.8999 26.98 24.8399C27.14 24.7799 27.3 24.7399 27.48 24.7399C27.66 24.7399 27.84 24.7799 27.98 24.8399C28.12 24.8999 28.26 25.0199 28.36 25.1799C28.46 25.3399 28.54 25.5399 28.6 25.7999C28.66 26.0599 28.68 26.3799 28.68 26.7599V28.6999H28.66Z" fill="#F5F5F5"/>
</svg>
