<svg width="48" height="48" viewBox="0 0 48 48" fill="none" xmlns="http://www.w3.org/2000/svg">
<path d="M23.98 10.0001V4.42006C23.98 3.52006 22.9 3.08006 22.28 3.72006L14.7 11.3001C14.3 11.7001 14.3 12.3201 14.7 12.7201L22.28 20.3001C22.9 20.9201 23.98 20.4801 23.98 19.6001V14.0001C31.44 14.0001 37.34 20.8401 35.7 28.5801C34.76 33.1201 31.08 36.7801 26.56 37.7201C19.42 39.2201 13.06 34.3201 12.1 27.7001C11.98 26.7401 11.14 26.0001 10.14 26.0001C8.94001 26.0001 7.98001 27.0601 8.14001 28.2601C9.38001 37.0401 17.74 43.5401 27.2 41.7001C33.44 40.4801 38.46 35.4601 39.68 29.2201C41.66 18.9601 33.88 10.0001 23.98 10.0001ZM21.78 32.0001H20.08V25.4801L18.06 26.1001V24.7201L21.6 23.4601H21.78V32.0001ZM30.34 28.4801C30.34 29.1201 30.28 29.6801 30.14 30.1201C30 30.5601 29.8 30.9601 29.56 31.2601C29.32 31.5601 29 31.7801 28.66 31.9201C28.32 32.0601 27.92 32.1201 27.48 32.1201C27.04 32.1201 26.66 32.0601 26.3 31.9201C25.94 31.7801 25.64 31.5601 25.38 31.2601C25.12 30.9601 24.92 30.5801 24.78 30.1201C24.64 29.6601 24.56 29.1201 24.56 28.4801V27.0001C24.56 26.3601 24.62 25.8001 24.76 25.3601C24.9 24.9201 25.1 24.5201 25.34 24.2201C25.58 23.9201 25.9 23.7001 26.24 23.5601C26.58 23.4201 26.98 23.3601 27.42 23.3601C27.86 23.3601 28.24 23.4201 28.6 23.5601C28.96 23.7001 29.26 23.9201 29.52 24.2201C29.78 24.5201 29.98 24.9001 30.12 25.3601C30.26 25.8201 30.34 26.3601 30.34 27.0001V28.4801ZM28.64 26.7601C28.64 26.3801 28.62 26.0601 28.56 25.8001C28.5 25.5401 28.42 25.3401 28.32 25.1801C28.22 25.0201 28.1 24.9001 27.94 24.8401C27.78 24.7801 27.62 24.7401 27.44 24.7401C27.26 24.7401 27.08 24.7801 26.94 24.8401C26.8 24.9001 26.66 25.0201 26.56 25.1801C26.46 25.3401 26.38 25.5401 26.32 25.8001C26.26 26.0601 26.24 26.3801 26.24 26.7601V28.7001C26.24 29.0801 26.26 29.4001 26.32 29.6601C26.38 29.9201 26.46 30.1401 26.56 30.3001C26.66 30.4601 26.78 30.5801 26.94 30.6401C27.1 30.7001 27.26 30.7401 27.44 30.7401C27.62 30.7401 27.8 30.7001 27.94 30.6401C28.08 30.5801 28.22 30.4601 28.32 30.3001C28.42 30.1401 28.5 29.9201 28.54 29.6601C28.58 29.4001 28.62 29.0801 28.62 28.7001V26.7601H28.64Z" fill="#F5F5F5"/>
</svg>
